<svg viewBox="16.66 0 22.06 11.55" fill="none" xmlns="http://www.w3.org/2000/svg">
<path d="M38.4953 11.0722C36.8449 11.0722 36.2011 9.10434 35.5709 7.20456C35.0131 5.50424 34.4827 3.89921 33.2131 3.89921C32.1567 3.89921 31.4676 5.01453 30.7965 6.09374C30.1844 7.08214 29.5541 8.10231 28.7199 8.10231C27.4504 8.10231 27.0151 6.0801 26.5979 4.12143C26.1673 2.09473 25.7183 0 24.2357 0C22.8483 0 22.0685 2.24892 21.1662 4.85149C20.1552 7.78043 19.0035 11.0994 16.8816 11.0994C16.7637 11.0949 16.6685 11.1946 16.6685 11.3125C16.6685 11.4304 16.7637 11.5301 16.8861 11.5301C18.6136 11.5301 19.9647 10.9996 21.1572 10.5325C22.1955 10.1245 23.1749 9.7436 24.2676 9.7436C25.8046 9.7436 26.6343 10.1426 27.4369 10.5281C28.1035 10.8454 28.7337 11.1492 29.6677 11.1492C30.7197 11.1492 31.2772 10.9225 31.7716 10.723C32.2069 10.5462 32.5877 10.3965 33.2542 10.3965C33.8845 10.3965 34.4013 10.5914 35.0089 10.8182C35.8296 11.1265 36.8452 11.5073 38.4911 11.5073C38.609 11.5073 38.7087 11.4122 38.7087 11.2897C38.7087 11.1673 38.6135 11.0722 38.4911 11.0722M29.0373 9.40809C30.1119 9.40809 30.7648 8.56474 31.395 7.75316C31.9528 7.03224 32.4741 6.35672 33.2268 6.35672C34.0565 6.35672 34.5371 7.318 35.0903 8.43332C35.3307 8.91389 35.58 9.41273 35.8747 9.86602C35.6934 9.68006 35.5256 9.48975 35.3579 9.2993C34.7413 8.601 34.1564 7.93912 33.2451 7.93912C32.3337 7.93912 31.8395 8.42433 31.3182 8.89126C30.7741 9.38096 30.2617 9.8434 29.3548 9.8434C28.4027 9.8434 27.8904 9.11348 27.3009 8.27013C26.6253 7.30436 25.859 6.20717 24.2585 6.20717C22.998 6.20717 22.0413 7.29087 21.0257 8.43332C20.6494 8.85949 20.264 9.28566 19.8604 9.67571C20.4726 8.84151 20.9894 7.82583 21.4791 6.8692C22.3542 5.15538 23.1794 3.53672 24.2449 3.53672C25.4873 3.53672 25.9949 4.93316 26.539 6.40676C27.0786 7.88037 27.6362 9.40823 29.0418 9.40823M28.7199 8.53762C29.79 8.53762 30.4881 7.41315 31.1638 6.32495C31.7714 5.34555 32.3971 4.33452 33.2131 4.33452C34.1698 4.33452 34.6505 5.79449 35.1582 7.34063C35.2443 7.59911 35.3305 7.8621 35.4212 8.12508C34.8499 6.97799 34.2877 5.92156 33.2266 5.92156C32.2609 5.92156 31.6442 6.71501 31.0502 7.48583C30.4562 8.25215 29.8986 8.97292 29.0372 8.97292C28.5475 8.97292 28.1848 8.70095 27.8809 8.28827C28.1213 8.44696 28.3979 8.53762 28.7199 8.53762ZM21.5788 4.99205C22.3903 2.64797 23.1567 0.435308 24.2357 0.435308C25.3692 0.435308 25.7774 2.35772 26.1763 4.21224C26.2035 4.33916 26.2307 4.47072 26.2579 4.59765C25.8091 3.74066 25.2196 3.10141 24.2449 3.10141C22.9118 3.10141 22.0277 4.83336 21.0937 6.66975C20.9486 6.95086 20.8036 7.24097 20.6494 7.52673C20.9849 6.70601 21.2885 5.8354 21.5788 4.99205ZM33.2584 9.95683C32.5012 9.95683 32.0478 10.1381 31.6126 10.315C31.132 10.5099 30.6378 10.7094 29.6676 10.7094C28.8334 10.7094 28.2711 10.4419 27.6227 10.129C26.8157 9.7436 25.8998 9.30379 24.2675 9.30379C23.0931 9.30379 22.0776 9.70284 20.9984 10.1245C20.4317 10.3467 19.8513 10.5733 19.2302 10.7503C20.0373 10.1972 20.7128 9.43086 21.3475 8.71908C22.2952 7.64901 23.1884 6.63798 24.2539 6.63798C25.6277 6.63798 26.2942 7.59012 26.9426 8.51513C27.5502 9.38111 28.1758 10.2744 29.3547 10.2744C30.4248 10.2744 31.055 9.71212 31.6081 9.21342C32.1115 8.75998 32.5421 8.37008 33.2449 8.37008C33.9477 8.37008 34.46 8.93231 35.0359 9.5852C35.385 9.98424 35.7794 10.4194 36.2783 10.7822C35.8658 10.6689 35.5075 10.5373 35.1675 10.4059C34.5236 10.1656 33.9705 9.95712 33.2632 9.95712" fill="#DBDCDE"/>
</svg>
